<svg width="80" height="80" viewBox="0 0 80 80" fill="none" xmlns="http://www.w3.org/2000/svg">
<path d="M36.3058 19.4082C37.4216 20.524 37.4215 22.333 36.3057 23.4488L26.3057 33.4483C25.2255 34.5285 23.4866 34.5678 22.3586 33.5376L18.0729 29.6233C16.9078 28.5592 16.826 26.752 17.8901 25.5868C18.9542 24.4217 20.7614 24.3399 21.9266 25.404L24.1961 27.4768L32.2652 19.4081C33.381 18.2923 35.1901 18.2924 36.3058 19.4082Z" fill="black"/>
<path d="M36.3057 52.0207C37.4215 50.9047 37.4216 49.0956 36.3058 47.9801C35.1901 46.8641 33.381 46.8641 32.2652 47.9796L24.1961 56.0487L21.9266 53.9756C20.7614 52.9116 18.9542 52.9933 17.8901 54.1584C16.826 55.3236 16.9078 57.131 18.0729 58.195L22.3586 62.1093C23.4866 63.1396 25.2255 63.1001 26.3057 62.0201L36.3057 52.0207Z" fill="black"/>
<path d="M42.8574 54.2859C42.8574 52.7081 44.1369 51.4287 45.7146 51.4287H60.0003C61.578 51.4287 62.8574 52.7081 62.8574 54.2859C62.8574 55.8636 61.578 57.143 60.0003 57.143H45.7146C44.1369 57.143 42.8574 55.8636 42.8574 54.2859Z" fill="black"/>
<path d="M45.7146 22.8569C44.1369 22.8569 42.8574 24.1361 42.8574 25.7141C42.8574 27.292 44.1369 28.5712 45.7146 28.5712H60.0003C61.578 28.5712 62.8574 27.292 62.8574 25.7141C62.8574 24.1361 61.578 22.8569 60.0003 22.8569H45.7146Z" fill="black"/>
<path d="M0 8.57143C0 3.83754 3.83754 0 8.57143 0H71.4286C76.1623 0 80 3.83754 80 8.57143V71.4286C80 76.1623 76.1623 80 71.4286 80H8.57143C3.83754 80 0 76.1623 0 71.4286V8.57143ZM8.57143 5.71429C6.99349 5.71429 5.71429 6.99349 5.71429 8.57143V71.4286C5.71429 73.0063 6.99349 74.2857 8.57143 74.2857H71.4286C73.0063 74.2857 74.2857 73.0063 74.2857 71.4286V8.57143C74.2857 6.99349 73.0063 5.71429 71.4286 5.71429H8.57143Z" fill="black"/>
</svg>
