<svg width="78" height="78" viewBox="0 0 78 78" fill="none" xmlns="http://www.w3.org/2000/svg">
<path d="M52.9999 74.9998C65.1501 74.9998 74.9998 65.1501 74.9998 52.9999C74.9998 40.8497 65.1501 31 52.9999 31C40.8497 31 31 40.8497 31 52.9999C31 65.1501 40.8497 74.9998 52.9999 74.9998Z" stroke="black" stroke-width="4.98" stroke-linecap="round" stroke-linejoin="round"/>
<path d="M53 44.3765V53.0001L59 59" stroke="black" stroke-width="4.98" stroke-linecap="round" stroke-linejoin="round"/>
<path d="M59 3V11" stroke="black" stroke-width="4.98" stroke-linecap="round" stroke-linejoin="round"/>
<path d="M19 3V11" stroke="black" stroke-width="4.98" stroke-linecap="round" stroke-linejoin="round"/>
<path d="M23.1225 74.9997C20.7019 74.9997 17.0711 74.9997 12.2299 74.9997C9.0205 74.9997 7.85667 74.6871 6.68334 74.0999C5.51001 73.5128 4.58918 72.6512 3.96167 71.5534C3.33417 70.4555 3 69.3665 3 66.3635V19.6362C3 16.6332 3.33417 15.5443 3.96167 14.4464C4.58918 13.3485 5.51001 12.4869 6.68334 11.8998C7.85667 11.3127 9.0205 11 12.2299 11H65.7698C68.9792 11 70.143 11.3127 71.3164 11.8998C72.4897 12.4869 73.4105 13.3485 74.038 14.4464C74.6655 15.5443 74.9997 19.9868 74.9997 22.9898" stroke="black" stroke-width="4.98" stroke-linecap="round" stroke-linejoin="round"/>
</svg>
