<svg width="21" height="23" viewBox="0 0 21 23" fill="none" xmlns="http://www.w3.org/2000/svg">
<path d="M15.2066 2.40054V2.90054H15.7066H16.807C17.55 2.90054 18.2625 3.19567 18.7878 3.72101C19.3132 4.24634 19.6083 4.95885 19.6083 5.70179V18.9068C19.6083 19.6497 19.3132 20.3622 18.7878 20.8876C18.2625 21.4129 17.55 21.708 16.807 21.708H3.60203C2.85909 21.708 2.14658 21.4129 1.62125 20.8876C1.09591 20.3622 0.800781 19.6497 0.800781 18.9068V5.70179C0.800781 4.95885 1.09591 4.24634 1.62125 3.72101C2.14658 3.19567 2.85909 2.90054 3.60203 2.90054H4.70245H5.20245V2.40054V1.30012C5.20245 1.14088 5.26571 0.988165 5.37831 0.875565C5.49091 0.762965 5.64362 0.699707 5.80287 0.699707C5.96211 0.699707 6.11482 0.762965 6.22742 0.875565C6.34002 0.988165 6.40328 1.14088 6.40328 1.30012V2.40054V2.90054H6.90328H13.5058H14.0058V2.40054V1.30012C14.0058 1.14088 14.069 0.988165 14.1816 0.875565C14.2942 0.762965 14.447 0.699707 14.6062 0.699707C14.7654 0.699707 14.9182 0.762966 15.0308 0.875565C15.1434 0.988164 15.2066 1.14088 15.2066 1.30012V2.40054ZM5.20245 4.60137V4.10137H4.70245H3.60203C3.17757 4.10137 2.7705 4.26999 2.47037 4.57013C2.17023 4.87026 2.00161 5.27733 2.00161 5.70179V10.1035V10.6035H2.50161H17.9074H18.4074V10.1035V5.70179C18.4074 5.27733 18.2388 4.87026 17.9387 4.57013C17.6386 4.26999 17.2315 4.10137 16.807 4.10137H15.7066H15.2066V4.60137V5.70179C15.2066 5.86103 15.1434 6.01375 15.0308 6.12635C14.9182 6.23895 14.7654 6.30221 14.6062 6.30221C14.447 6.30221 14.2942 6.23895 14.1816 6.12635C14.069 6.01375 14.0058 5.86103 14.0058 5.70179V4.60137V4.10137H13.5058H6.90328H6.40328V4.60137V5.70179C6.40328 5.86103 6.34002 6.01375 6.22742 6.12635C6.11482 6.23895 5.96211 6.30221 5.80287 6.30221C5.64362 6.30221 5.49091 6.23895 5.37831 6.12635C5.26571 6.01375 5.20245 5.86103 5.20245 5.70179V4.60137ZM2.50161 11.8043H2.00161V12.3043V18.9068C2.00161 19.3312 2.17023 19.7383 2.47037 20.0385C2.7705 20.3386 3.17758 20.5072 3.60203 20.5072H16.807C17.2315 20.5072 17.6386 20.3386 17.9387 20.0385C18.2388 19.7383 18.4074 19.3312 18.4074 18.9068V12.3043V11.8043H17.9074H2.50161Z" fill="black" stroke="black"/>
<path d="M6.40396 15.6053C6.40396 15.9369 6.13514 16.2057 5.80354 16.2057C5.47194 16.2057 5.20312 15.9369 5.20312 15.6053C5.20312 15.2737 5.47194 15.0049 5.80354 15.0049C6.13514 15.0049 6.40396 15.2737 6.40396 15.6053Z" fill="black" stroke="black"/>
<path d="M10.2039 15.0049H14.6056C14.7648 15.0049 14.9176 15.0681 15.0302 15.1807C15.1428 15.2933 15.206 15.4461 15.206 15.6053C15.206 15.7645 15.1428 15.9173 15.0302 16.0299C14.9176 16.1425 14.7648 16.2057 14.6056 16.2057H10.2039C10.0447 16.2057 9.89197 16.1425 9.77937 16.0299C9.66677 15.9173 9.60352 15.7645 9.60352 15.6053C9.60352 15.4461 9.66677 15.2933 9.77937 15.1807C9.89197 15.0681 10.0447 15.0049 10.2039 15.0049Z" fill="black" stroke="black"/>
</svg>
