<svg width="87" height="87" viewBox="0 0 87 87" fill="none" xmlns="http://www.w3.org/2000/svg">
<path d="M31.8287 17.1088C32.8905 18.1706 32.8905 19.892 31.8287 20.9537L20.9537 31.8287C19.892 32.8905 18.1706 32.8905 17.1088 31.8287L11.6713 26.3912C10.6096 25.3295 10.6096 23.6081 11.6713 22.5463C12.7331 21.4846 14.4545 21.4846 15.5162 22.5463L19.0313 26.0614L27.9838 17.1088C29.0456 16.0471 30.767 16.0471 31.8287 17.1088Z" fill="black"/>
<path d="M31.8287 44.2961C32.8905 45.358 32.8905 47.0795 31.8287 48.1414L20.9537 59.0164C19.892 60.0778 18.1706 60.0778 17.1088 59.0164L11.6713 53.5789C10.6096 52.517 10.6096 50.7955 11.6713 49.7336C12.7331 48.6722 14.4545 48.6722 15.5162 49.7336L19.0313 53.2489L27.9838 44.2961C29.0456 43.2347 30.767 43.2347 31.8287 44.2961Z" fill="black"/>
<path d="M38.0625 24.4688C38.0625 22.9672 39.28 21.75 40.7812 21.75H57.0938C58.595 21.75 59.8125 22.9672 59.8125 24.4688C59.8125 25.9703 58.595 27.1875 57.0938 27.1875H40.7812C39.28 27.1875 38.0625 25.9703 38.0625 24.4688Z" fill="black"/>
<path d="M13.5938 0C6.08614 0 0 6.08614 0 13.5938V62.5312C0 70.0388 6.08614 76.125 13.5938 76.125H35.8859C35.0054 74.4024 34.2869 72.583 33.7507 70.6875H13.5938C9.08916 70.6875 5.4375 67.0357 5.4375 62.5312V13.5938C5.4375 9.08916 9.08916 5.4375 13.5938 5.4375H62.5312C67.0357 5.4375 70.6875 9.08916 70.6875 13.5938V33.7507C72.583 34.2869 74.4024 35.0054 76.125 35.8859V13.5938C76.125 6.08614 70.0388 0 62.5312 0H13.5938Z" fill="black"/>
<path d="M62.5313 87C76.0451 87 87 76.0451 87 62.5313C87 49.0174 76.0451 38.0625 62.5313 38.0625C49.0174 38.0625 38.0625 49.0174 38.0625 62.5313C38.0625 76.0451 49.0174 87 62.5313 87ZM62.5313 48.9375C64.0325 48.9375 65.25 50.155 65.25 51.6563V59.8125H73.4063C74.9075 59.8125 76.125 61.03 76.125 62.5313C76.125 64.0325 74.9075 65.25 73.4063 65.25H65.25V73.4063C65.25 74.9075 64.0325 76.125 62.5313 76.125C61.03 76.125 59.8125 74.9075 59.8125 73.4063V65.25H51.6563C50.155 65.25 48.9375 64.0325 48.9375 62.5313C48.9375 61.03 50.155 59.8125 51.6563 59.8125H59.8125V51.6563C59.8125 50.155 61.03 48.9375 62.5313 48.9375Z" fill="black"/>
</svg>
