<svg width="80" height="69" viewBox="0 0 80 69" fill="none" xmlns="http://www.w3.org/2000/svg">
<path d="M28.582 11.4173C28.582 5.1117 33.6937 0 39.9993 0C46.3049 0 51.4166 5.1117 51.4166 11.4173C51.4166 17.7228 46.3049 22.8345 39.9993 22.8345C33.6937 22.8345 28.582 17.7228 28.582 11.4173ZM39.9993 5.71434C36.8496 5.71434 34.2964 8.26762 34.2964 11.4173C34.2964 14.5669 36.8496 17.1202 39.9993 17.1202C43.149 17.1202 45.7022 14.5669 45.7022 11.4173C45.7022 8.26762 43.149 5.71434 39.9993 5.71434Z" fill="black"/>
<path d="M57.1445 14.2741C57.1445 9.54021 60.9823 5.70264 65.716 5.70264C70.4498 5.70264 74.2875 9.54021 74.2875 14.2741C74.2875 19.0081 70.4498 22.8456 65.716 22.8456C60.9823 22.8456 57.1445 19.0081 57.1445 14.2741ZM65.716 11.417C64.1383 11.417 62.8589 12.6962 62.8589 14.2741C62.8589 15.8521 64.1383 17.1313 65.716 17.1313C67.2938 17.1313 68.5732 15.8521 68.5732 14.2741C68.5732 12.6962 67.2938 11.417 65.716 11.417Z" fill="black"/>
<path d="M14.2863 5.70264C9.55242 5.70264 5.71484 9.54021 5.71484 14.2741C5.71484 19.0081 9.55242 22.8456 14.2863 22.8456C19.0203 22.8456 22.8579 19.0081 22.8579 14.2741C22.8579 9.54021 19.0203 5.70264 14.2863 5.70264ZM11.4292 14.2741C11.4292 12.6962 12.7084 11.417 14.2863 11.417C15.8643 11.417 17.1435 12.6962 17.1435 14.2741C17.1435 15.8521 15.8643 17.1313 14.2863 17.1313C12.7084 17.1313 11.4292 15.8521 11.4292 14.2741Z" fill="black"/>
<path d="M18.6719 28.5586C17.6995 30.2396 17.143 32.1913 17.143 34.2729H5.71434V48.5605C5.71434 53.2949 9.55191 57.132 14.2858 57.132C15.4969 57.132 16.6493 56.8812 17.6938 56.428C18.1173 58.3218 18.7757 60.1264 19.6369 61.8104C17.9842 62.4784 16.178 62.8464 14.2858 62.8464C6.396 62.8464 0 56.4503 0 48.5605V34.2729C0 31.117 2.55842 28.5586 5.71434 28.5586H18.6719Z" fill="black"/>
<path d="M60.3633 61.8104C62.0159 62.4784 63.8222 62.8464 65.7142 62.8464C73.604 62.8464 80 56.4503 80 48.5605V34.2729C80 31.117 77.4417 28.5586 74.2857 28.5586H61.3279C62.3004 30.2396 62.857 32.1913 62.857 34.273L74.2857 34.2729V48.5605C74.2857 53.2949 70.4479 57.132 65.7142 57.132C64.5033 57.132 63.3507 56.8812 62.3062 56.428C61.8827 58.3218 61.2244 60.1264 60.3633 61.8104Z" fill="black"/>
<path d="M28.5718 28.5586C25.4158 28.5586 22.8574 31.117 22.8574 34.2729V51.4177C22.8574 60.8858 30.5326 68.5607 40.0004 68.5607C49.4682 68.5607 57.1434 60.8858 57.1434 51.4177V34.2729C57.1434 31.117 54.5851 28.5586 51.4291 28.5586H28.5718ZM28.5718 34.2729H51.4291V51.4177C51.4291 57.7298 46.3123 62.8464 40.0004 62.8464C33.6885 62.8464 28.5718 57.7298 28.5718 51.4177V34.2729Z" fill="black"/>
</svg>
