<svg width="28" height="28" viewBox="0 0 28 28" fill="none" xmlns="http://www.w3.org/2000/svg">
<path d="M1.55556 0H26.4444C26.857 0 27.2527 0.163889 27.5444 0.455612C27.8361 0.747335 28 1.143 28 1.55556V26.4444C28 26.857 27.8361 27.2527 27.5444 27.5444C27.2527 27.8361 26.857 28 26.4444 28H1.55556C1.143 28 0.747335 27.8361 0.455612 27.5444C0.163889 27.2527 0 26.857 0 26.4444V1.55556C0 1.143 0.163889 0.747335 0.455612 0.455612C0.747335 0.163889 1.143 0 1.55556 0ZM14 23.3333C14.4126 23.3333 14.8082 23.1694 15.0999 22.8777C15.3917 22.586 15.5556 22.1903 15.5556 21.7778C15.5556 21.3652 15.3917 20.9696 15.0999 20.6778C14.8082 20.3861 14.4126 20.2222 14 20.2222C13.5874 20.2222 13.1918 20.3861 12.9001 20.6778C12.6083 20.9696 12.4444 21.3652 12.4444 21.7778C12.4444 22.1903 12.6083 22.586 12.9001 22.8777C13.1918 23.1694 13.5874 23.3333 14 23.3333ZM14 4.66667C13.5874 4.66667 13.1918 4.83056 12.9001 5.12228C12.6083 5.414 12.4444 5.80966 12.4444 6.22222V15.5556C12.4444 15.9681 12.6083 16.3638 12.9001 16.6555C13.1918 16.9472 13.5874 17.1111 14 17.1111C14.4126 17.1111 14.8082 16.9472 15.0999 16.6555C15.3917 16.3638 15.5556 15.9681 15.5556 15.5556V6.22222C15.5556 5.80966 15.3917 5.414 15.0999 5.12228C14.8082 4.83056 14.4126 4.66667 14 4.66667Z" fill="black"/>
</svg>
