<svg width="24" height="22" viewBox="0 0 24 22" fill="none" xmlns="http://www.w3.org/2000/svg">
<path d="M13.5598 16.1036C13.8353 15.318 14.3463 14.6377 15.0223 14.1565C15.6983 13.6753 16.506 13.4169 17.3341 13.4169C18.1623 13.4169 18.97 13.6753 19.646 14.1565C20.322 14.6377 20.833 15.318 21.1085 16.1036H22.6556C23.0093 16.1036 23.3486 16.245 23.5987 16.4966C23.8488 16.7482 23.9893 17.0895 23.9893 17.4453C23.9893 17.8012 23.8488 18.1424 23.5987 18.394C23.3486 18.6457 23.0093 18.787 22.6556 18.787H21.1085C20.833 19.5726 20.322 20.2529 19.646 20.7341C18.97 21.2153 18.1623 21.4737 17.3341 21.4737C16.506 21.4737 15.6983 21.2153 15.0223 20.7341C14.3463 20.2529 13.8353 19.5726 13.5598 18.787H1.3337C0.979984 18.787 0.640751 18.6457 0.390633 18.394C0.140515 18.1424 0 17.8012 0 17.4453C0 17.0895 0.140515 16.7482 0.390633 16.4966C0.640751 16.245 0.979984 16.1036 1.3337 16.1036H13.5624H13.5598ZM2.89014 2.68668C3.16568 1.90107 3.67667 1.22079 4.35268 0.739595C5.02868 0.258404 5.8364 0 6.66452 0C7.49263 0 8.30036 0.258404 8.97636 0.739595C9.65236 1.22079 10.1634 1.90107 10.4389 2.68668H22.6663C23.02 2.68668 23.3592 2.82803 23.6094 3.07965C23.8595 3.33127 24 3.67253 24 4.02837C24 4.38421 23.8595 4.72547 23.6094 4.97709C23.3592 5.22871 23.02 5.37006 22.6663 5.37006H10.4376C10.1615 6.15475 9.65041 6.83406 8.97473 7.31451C8.29904 7.79497 7.49195 8.05295 6.66452 8.05295C5.83709 8.05295 5.02999 7.79497 4.35431 7.31451C3.67863 6.83406 3.16757 6.15475 2.89147 5.37006H1.34171C0.987986 5.37006 0.648753 5.22871 0.398635 4.97709C0.148517 4.72547 0.00800228 4.38421 0.00800228 4.02837C0.00800228 3.67253 0.148517 3.33127 0.398635 3.07965C0.648753 2.82803 0.987986 2.68668 1.34171 2.68668H2.89147H2.89014ZM6.66452 5.37006C7.01824 5.37006 7.35747 5.22871 7.60759 4.97709C7.85771 4.72547 7.99822 4.38421 7.99822 4.02837C7.99822 3.67253 7.85771 3.33127 7.60759 3.07965C7.35747 2.82803 7.01824 2.68668 6.66452 2.68668C6.3108 2.68668 5.97157 2.82803 5.72145 3.07965C5.47133 3.33127 5.33081 3.67253 5.33081 4.02837C5.33081 4.38421 5.47133 4.72547 5.72145 4.97709C5.97157 5.22871 6.3108 5.37006 6.66452 5.37006ZM17.3341 18.787C17.6879 18.787 18.0271 18.6457 18.2772 18.394C18.5273 18.1424 18.6679 17.8012 18.6679 17.4453C18.6679 17.0895 18.5273 16.7482 18.2772 16.4966C18.0271 16.245 17.6879 16.1036 17.3341 16.1036C16.9804 16.1036 16.6412 16.245 16.3911 16.4966C16.141 16.7482 16.0004 17.0895 16.0004 17.4453C16.0004 17.8012 16.141 18.1424 16.3911 18.394C16.6412 18.6457 16.9804 18.787 17.3341 18.787Z" fill="black"/>
</svg>
