<svg width="683" height="683" viewBox="0 0 683 683" fill="none" xmlns="http://www.w3.org/2000/svg">
<path d="M683 522.358H0V522.7H683V522.358Z" fill="#E6E6E6"/>
<path d="M170.504 543.025H125.262V543.367H170.504V543.025Z" fill="#E6E6E6"/>
<path d="M110.946 543.025H84.7324V543.367H110.946V543.025Z" fill="#E6E6E6"/>
<path d="M287.612 548.053H261.398V548.394H287.612V548.053Z" fill="#E6E6E6"/>
<path d="M424.292 555.675H365.295V556.016H424.292V555.675Z" fill="#E6E6E6"/>
<path d="M353.139 555.675H344.492V556.016H353.139V555.675Z" fill="#E6E6E6"/>
<path d="M619.275 548.053H491.309V548.394H619.275V548.053Z" fill="#E6E6E6"/>
<path d="M323.742 461.435H59.9815C57.9152 461.431 55.9348 460.608 54.475 459.145C53.0152 457.683 52.1953 455.701 52.1953 453.635V82.8614C52.2133 80.807 53.0411 78.8426 54.499 77.395C55.9569 75.9474 57.927 75.1334 59.9815 75.1299H323.742C325.811 75.1299 327.795 75.9517 329.258 77.4144C330.721 78.8772 331.542 80.8611 331.542 82.9297V453.635C331.542 455.703 330.721 457.687 329.258 459.15C327.795 460.613 325.811 461.435 323.742 461.435ZM59.9815 75.4031C58.0058 75.4067 56.1122 76.1941 54.7165 77.5924C53.3207 78.9907 52.5368 80.8857 52.5368 82.8614V453.635C52.5368 455.611 53.3207 457.506 54.7165 458.904C56.1122 460.302 58.0058 461.09 59.9815 461.093H323.742C325.719 461.09 327.614 460.303 329.012 458.905C330.41 457.507 331.197 455.612 331.201 453.635V82.8614C331.197 80.8845 330.41 78.9895 329.012 77.5916C327.614 76.1936 325.719 75.4067 323.742 75.4031H59.9815Z" fill="#E6E6E6"/>
<path d="M619.221 461.435H355.446C353.379 461.431 351.397 460.608 349.935 459.146C348.473 457.684 347.65 455.702 347.646 453.635V82.8614C347.668 80.8058 348.499 78.8414 349.959 77.3942C351.419 75.9469 353.391 75.1334 355.446 75.1299H619.221C621.273 75.137 623.24 75.9526 624.695 77.3998C626.15 78.8471 626.976 80.8094 626.993 82.8614V453.635C626.993 455.699 626.175 457.679 624.719 459.14C623.262 460.602 621.285 461.427 619.221 461.435ZM355.446 75.4031C353.469 75.4067 351.574 76.1936 350.176 77.5916C348.779 78.9895 347.992 80.8845 347.988 82.8614V453.635C347.992 455.612 348.779 457.507 350.176 458.905C351.574 460.303 353.469 461.09 355.446 461.093H619.221C621.198 461.09 623.093 460.303 624.491 458.905C625.889 457.507 626.676 455.612 626.679 453.635V82.8614C626.676 80.8845 625.889 78.9895 624.491 77.5916C623.093 76.1936 621.198 75.4067 619.221 75.4031H355.446Z" fill="#E6E6E6"/>
<path d="M365.269 405.675H335.23V524.831H365.269V405.675Z" fill="#E0E0E0"/>
<path d="M359.559 524.831H365.269V508.603H353.576L359.559 524.831Z" fill="#FAFAFA"/>
<path d="M233.64 405.675H203.602V524.831H233.64V405.675Z" fill="#E0E0E0"/>
<path d="M365.268 405.675H228.668V514.873H365.268V405.675Z" fill="#FAFAFA"/>
<path d="M360.309 411.043V439.933H233.586V411.043H360.268M360.801 410.51H233.094V440.453H360.842V410.51H360.801Z" fill="#E0E0E0"/>
<path d="M234.364 524.831H228.668V508.603H240.347L234.364 524.831Z" fill="#FAFAFA"/>
<path d="M293.949 425.482C293.949 426.079 294.126 426.663 294.458 427.159C294.79 427.655 295.261 428.042 295.813 428.271C296.364 428.499 296.971 428.559 297.557 428.443C298.143 428.326 298.681 428.039 299.103 427.616C299.525 427.194 299.812 426.656 299.929 426.071C300.045 425.485 299.986 424.878 299.757 424.327C299.529 423.775 299.142 423.303 298.645 422.972C298.149 422.64 297.565 422.463 296.968 422.463C296.167 422.463 295.4 422.781 294.833 423.347C294.267 423.913 293.949 424.681 293.949 425.482Z" fill="#E6E6E6"/>
<path d="M360.309 445.821V474.712H233.586V445.821H360.268M360.801 445.302H233.094V475.244H360.842V445.315L360.801 445.302Z" fill="#E0E0E0"/>
<path d="M293.949 460.342C293.949 460.939 294.126 461.523 294.458 462.019C294.79 462.516 295.261 462.903 295.813 463.131C296.364 463.36 296.971 463.419 297.557 463.303C298.143 463.186 298.681 462.899 299.103 462.477C299.525 462.055 299.812 461.517 299.929 460.931C300.045 460.345 299.986 459.738 299.757 459.187C299.529 458.635 299.142 458.164 298.645 457.832C298.149 457.5 297.565 457.323 296.968 457.323C296.167 457.323 295.4 457.641 294.833 458.207C294.267 458.774 293.949 459.541 293.949 460.342Z" fill="#E6E6E6"/>
<path d="M360.309 480.614V509.518H233.586V480.614H360.268M360.801 480.081H233.094V510.037H360.842V480.081H360.801Z" fill="#E0E0E0"/>
<path d="M293.949 495.066C293.952 495.662 294.131 496.245 294.465 496.739C294.798 497.234 295.27 497.619 295.822 497.845C296.374 498.071 296.981 498.129 297.565 498.011C298.15 497.893 298.687 497.605 299.108 497.182C299.528 496.759 299.815 496.221 299.93 495.636C300.045 495.051 299.985 494.444 299.756 493.894C299.527 493.343 299.14 492.872 298.644 492.541C298.148 492.21 297.565 492.033 296.968 492.033C296.571 492.033 296.177 492.112 295.81 492.264C295.443 492.417 295.109 492.64 294.829 492.922C294.548 493.204 294.326 493.538 294.175 493.906C294.024 494.274 293.947 494.668 293.949 495.066Z" fill="#E6E6E6"/>
<path d="M215.296 336.473H185.258V524.844H215.296V336.473Z" fill="#E0E0E0"/>
<path d="M209.585 524.831H215.295V508.603H203.615L209.585 524.831Z" fill="#FAFAFA"/>
<path d="M103.038 336.473H73V524.844H103.038V336.473Z" fill="#E0E0E0"/>
<path d="M215.295 336.473H98.0508V514.886H215.295V336.473Z" fill="#FAFAFA"/>
<path d="M210.24 341.499V381.892H103.105V341.499H210.24ZM210.869 340.885H102.449V382.479H210.841V340.898L210.869 340.885Z" fill="#E0E0E0"/>
<path d="M210.24 386.824V493.959H159.207V386.824H210.24ZM210.869 386.195H158.592V494.587H210.869V386.195Z" fill="#E0E0E0"/>
<path d="M154.139 386.824V493.959H103.105V386.824H154.139ZM154.753 386.195H102.449V494.587H154.726V386.195H154.753Z" fill="#E0E0E0"/>
<path d="M103.761 524.831H98.0508V508.603H109.744L103.761 524.831Z" fill="#FAFAFA"/>
<path d="M153.648 361.717C153.646 362.317 153.821 362.905 154.153 363.406C154.484 363.906 154.957 364.297 155.511 364.529C156.065 364.76 156.675 364.822 157.264 364.707C157.853 364.591 158.395 364.303 158.82 363.88C159.246 363.456 159.536 362.916 159.654 362.327C159.772 361.739 159.713 361.128 159.484 360.573C159.255 360.019 158.866 359.544 158.367 359.21C157.868 358.876 157.281 358.698 156.681 358.698C155.879 358.698 155.11 359.016 154.541 359.582C153.973 360.147 153.652 360.915 153.648 361.717Z" fill="#E6E6E6"/>
<path d="M164.467 437.844C164.467 438.444 164.645 439.031 164.979 439.53C165.313 440.029 165.787 440.418 166.342 440.647C166.897 440.876 167.507 440.935 168.096 440.817C168.685 440.699 169.225 440.409 169.648 439.984C170.072 439.558 170.36 439.016 170.475 438.427C170.591 437.838 170.529 437.228 170.297 436.674C170.065 436.12 169.675 435.648 169.174 435.316C168.674 434.984 168.086 434.809 167.486 434.812C167.088 434.812 166.694 434.89 166.327 435.043C165.96 435.195 165.627 435.419 165.346 435.701C165.066 435.982 164.844 436.317 164.693 436.685C164.542 437.052 164.465 437.446 164.467 437.844Z" fill="#E6E6E6"/>
<path d="M142.842 437.844C142.845 438.441 143.024 439.023 143.357 439.517C143.691 440.012 144.163 440.397 144.715 440.623C145.267 440.85 145.873 440.908 146.458 440.79C147.043 440.672 147.579 440.383 148 439.96C148.421 439.537 148.707 439 148.823 438.414C148.938 437.829 148.877 437.223 148.648 436.672C148.42 436.121 148.033 435.65 147.536 435.319C147.04 434.988 146.457 434.812 145.861 434.812C145.463 434.812 145.069 434.89 144.702 435.043C144.335 435.195 144.002 435.419 143.721 435.701C143.441 435.982 143.219 436.317 143.068 436.685C142.917 437.052 142.84 437.446 142.842 437.844Z" fill="#E6E6E6"/>
<path d="M139.428 283.95H126.765C127.932 290.093 128.667 296.31 128.964 302.555C128.964 309.385 119.32 336.473 133.062 336.473C146.804 336.473 137.16 309.453 137.16 302.555C137.48 296.308 138.238 290.091 139.428 283.95Z" fill="#E0E0E0"/>
<path d="M91.248 311.652V319.848C91.2625 324.242 93.0142 328.452 96.1211 331.559C99.2279 334.665 103.438 336.417 107.831 336.432H116.027C120.421 336.417 124.631 334.665 127.737 331.559C130.844 328.452 132.596 324.242 132.611 319.848V311.652H91.248Z" fill="#F5F5F5"/>
<path d="M267.285 388.299C267.285 397.861 277.981 405.674 291.054 405.674H302.856C315.928 405.674 326.624 397.861 326.624 388.299H267.285Z" fill="#E0E0E0"/>
<path d="M580.017 374.284C572.859 380.13 562.969 390.826 553.926 405.879C547.889 415.906 544.255 426.369 542.657 440.275C542.657 424.566 542.753 407.696 542.807 391.769C544.624 387.671 548.777 378.218 551.755 370.76C561.685 345.857 565.415 339.724 574.334 318.25C586.26 289.564 598.472 255.606 594.975 258.324C587.844 263.856 560.524 315.013 557.574 322.335C549.531 341.874 544.559 362.54 542.835 383.6C542.835 368.574 542.944 354.914 542.998 344.314C543.19 309.74 543.777 298.58 544.064 295.138C545.17 293.389 546.468 291.354 547.233 290.261C553.653 280.972 556.126 273.077 562.163 259.226C570.742 239.624 578.118 204.804 575.96 206.553C566.972 213.874 559.896 229.583 550.58 249.623C541.264 269.662 543.927 281.177 542.083 298.28C541.701 301.64 541.4 314.316 541.182 331.87C538.777 313.155 534.242 300.834 525.978 289.633C515.815 275.85 505.98 266.547 498.767 261.684C491.555 256.821 511.225 290.671 520.623 305.396C528.997 318.565 536.715 330.162 541.113 341.595C540.881 365.405 540.772 395.539 540.772 423.555C538.614 410.797 535.089 397.041 530.39 386.4C524.735 373.614 516.047 353.999 509.122 347.346C507.469 345.748 516.361 383.9 522.071 394.036C527.781 404.172 531.975 413.748 535.567 419.498C536.401 420.864 539.187 426.014 540.772 428.992C540.772 463.238 540.963 493.454 541.264 503.74H542.739C542.643 501.09 542.616 483.659 542.657 460.601C546.222 448.089 554.364 433.8 561.084 420.769C568.406 406.658 587.175 368.478 580.017 374.284Z" fill="#E0E0E0"/>
<path d="M563.394 524.831H520.583L517.346 482.867H566.631L563.394 524.831Z" fill="#F0F0F0"/>
<path d="M569.814 487.757H514.149L512.564 473.592H571.412L569.814 487.757Z" fill="#F5F5F5"/>
<path d="M169.74 103.133H93.1758V187.21H169.74V103.133Z" fill="#E0E0E0"/>
<path d="M178.031 103.133H98.9395V187.21H178.031V103.133Z" fill="#F5F5F5"/>
<path d="M171.406 180.585V109.758H105.565V180.585H171.406Z" fill="white"/>
<path d="M155.438 163.401V126.915H121.52V163.401H155.438Z" fill="#F5F5F5"/>
<path d="M560.128 112.927H489V191.035H560.128V112.927Z" fill="#E0E0E0"/>
<path d="M567.833 112.927H494.369V191.035H567.833V112.927Z" fill="#F5F5F5"/>
<path d="M561.686 184.874V119.088H500.53V184.874H561.686Z" fill="white"/>
<path d="M531.101 171.064C541.64 171.064 550.184 162.521 550.184 151.981C550.184 141.442 541.64 132.898 531.101 132.898C520.561 132.898 512.018 141.442 512.018 151.981C512.018 162.521 520.561 171.064 531.101 171.064Z" fill="#F5F5F5"/>
<path d="M249.281 153.265H192.482V215.636H249.281V153.265Z" fill="#E0E0E0"/>
<path d="M255.428 153.265H196.758V215.636H255.428V153.265Z" fill="#F5F5F5"/>
<path d="M250.512 210.719V158.183H201.677V210.719H250.512Z" fill="white"/>
<path d="M226.1 171.16L212.74 194.3H239.459L226.1 171.16Z" fill="#F5F5F5"/>
<path d="M341.5 584.047C487.775 584.047 606.354 577.124 606.354 568.584C606.354 560.044 487.775 553.121 341.5 553.121C195.226 553.121 76.6465 560.044 76.6465 568.584C76.6465 577.124 195.226 584.047 341.5 584.047Z" fill="#F5F5F5"/>
<path d="M477.074 223.245L463.524 217.781C463.524 217.781 445.643 250.388 440.52 252.041C433.554 254.281 419.129 260.51 410.577 261.603C409.416 262.969 407.518 267.217 407.695 268.76C419.183 272.599 444.427 267.504 449.836 263.488C462.144 254.376 477.074 223.245 477.074 223.245Z" fill="#E58A7B"/>
<path d="M481.24 215.828C483.767 225.158 470.08 243.927 470.08 243.927L452.145 233.873C452.145 233.873 455.505 226.155 459.603 218.3C466.173 205.61 478.358 205.187 481.24 215.828Z" fill="#003D9E"/>
<path opacity="0.2" d="M481.24 215.828C483.767 225.158 470.08 243.927 470.08 243.927L452.145 233.873C452.145 233.873 455.505 226.155 459.603 218.3C466.173 205.61 478.358 205.187 481.24 215.828Z" fill="black"/>
<path opacity="0.2" d="M459.262 237.889L466.324 241.85L467.567 220.172C463.455 223.327 460.559 232.835 459.262 237.889Z" fill="black"/>
<path d="M469.439 208.807C469.439 208.807 455.478 239.869 463.62 297.706H518.629C519.503 289.264 516.607 248.065 527.084 208.287C521.05 207.108 514.944 206.328 508.807 205.952C501.023 205.501 493.219 205.501 485.435 205.952C480.039 206.5 474.692 207.454 469.439 208.807Z" fill="#003D9E"/>
<path opacity="0.2" d="M469.439 208.807C469.439 208.807 455.478 239.869 463.62 297.706H518.629C519.503 289.264 516.607 248.065 527.084 208.287C521.05 207.108 514.944 206.328 508.807 205.952C501.023 205.501 493.219 205.501 485.435 205.952C480.039 206.5 474.692 207.454 469.439 208.807Z" fill="black"/>
<g style="mix-blend-mode:multiply">
<path d="M456.68 569.813C456.598 571.288 477.457 572.477 503.261 572.477C529.064 572.477 550.073 571.288 550.155 569.813C550.237 568.338 529.392 567.163 503.575 567.163C477.757 567.163 456.776 568.352 456.68 569.813Z" fill="#E8ECF1"/>
</g>
<path d="M493.399 531.05L483.643 534.827L492.047 556.538L501.803 552.761L493.399 531.05Z" fill="#E58A7B"/>
<path d="M536.906 559.309H526.62L522.85 535.5H533.136L536.906 559.309Z" fill="#E58A7B"/>
<path d="M525.908 558.12H537.465C537.665 558.121 537.859 558.192 538.012 558.323C538.164 558.453 538.266 558.633 538.298 558.83L539.787 567.969C539.818 568.198 539.8 568.432 539.733 568.653C539.666 568.875 539.553 569.079 539.4 569.253C539.247 569.427 539.058 569.565 538.847 569.66C538.636 569.754 538.407 569.802 538.175 569.799C534.145 569.731 532.206 569.485 527.124 569.485C523.996 569.485 517.562 569.813 513.218 569.813C508.874 569.813 508.588 565.551 510.377 565.155C518.409 563.42 521.524 561.057 524.201 558.762C524.673 558.347 525.28 558.119 525.908 558.12Z" fill="#263238"/>
<path d="M491.76 554.596L502.688 551.4C502.883 551.345 503.091 551.358 503.277 551.437C503.463 551.517 503.617 551.658 503.712 551.837L507.81 560.033C507.905 560.241 507.954 560.467 507.953 560.695C507.951 560.924 507.9 561.15 507.803 561.357C507.705 561.563 507.563 561.747 507.388 561.893C507.212 562.039 507.007 562.146 506.786 562.205C502.811 563.297 500.147 563.967 495.175 565.415C491.746 566.412 488.249 568.037 484.861 569.117C482.512 569.868 476.993 569.895 474.138 569.895C469.917 569.895 468.975 565.442 470.792 565.237C475.368 564.732 475.982 564.964 478.509 563.694C482.644 561.886 486.392 559.298 489.547 556.071C490.142 555.393 490.905 554.884 491.76 554.596Z" fill="#263238"/>
<path d="M412.299 261.549L400.988 256.809L396.33 269.348C400.966 270.055 405.682 270.055 410.318 269.348L412.299 261.549Z" fill="#E58A7B"/>
<path d="M392.574 256.48L392.273 264.813L396.33 269.321L400.988 256.781L392.574 256.48Z" fill="#E58A7B"/>
<path d="M494.738 532.893L484.951 536.672L489.285 547.899L499.072 544.12L494.738 532.893Z" fill="#CF6F64"/>
<path d="M533.136 535.5H522.85L524.803 547.78H535.089L533.136 535.5Z" fill="#CF6F64"/>
<path opacity="0.2" d="M461.871 282.066C462.076 284.538 462.308 287.066 462.609 289.661L503.507 276.383C509.894 274.491 515.444 270.477 519.243 265.005C519.407 261.357 519.612 257.519 519.926 253.517C520.063 251.577 520.227 249.583 520.404 247.561C520.582 245.539 520.828 243.299 521.087 241.141L461.871 282.066Z" fill="black"/>
<path d="M475.231 237.26L473.865 237.097C474.671 230.267 479.766 224.884 485.135 225.021V226.387C480.436 226.291 475.955 231.141 475.231 237.26Z" fill="white"/>
<path d="M482.512 249.869H482.279V248.503C486.978 248.681 491.391 243.777 492.115 237.671L493.481 237.835C492.757 244.515 487.825 249.869 482.512 249.869Z" fill="white"/>
<path d="M508.042 179.629C506.116 187.156 503.849 200.939 508.807 205.952C508.807 205.952 505.337 213.588 491.363 213.588C478.591 213.588 485.435 205.952 485.435 205.952C493.931 203.957 494.082 197.756 492.962 191.882L508.042 179.629Z" fill="#E58A7B"/>
<path d="M501.895 184.629L492.975 191.882C493.251 193.232 493.411 194.603 493.453 195.98C496.062 198.576 501.294 192.005 501.826 188.645C502.097 187.322 502.12 185.96 501.895 184.629Z" fill="#CF6F64"/>
<path d="M477.635 179.534C478.255 180.61 479.091 181.546 480.09 182.284C481.089 183.022 482.23 183.546 483.44 183.823C486.719 184.547 488.358 181.528 487.456 178.496C486.65 175.764 483.959 172.089 480.626 172.717C479.912 172.865 479.244 173.181 478.677 173.639C478.111 174.097 477.662 174.685 477.369 175.353C477.076 176.02 476.947 176.748 476.994 177.476C477.04 178.203 477.26 178.909 477.635 179.534Z" fill="#CF6F64"/>
<path d="M483.057 155.451C477.948 157.787 476.145 178.085 482.565 181.091C488.985 184.096 492.728 151.011 483.057 155.451Z" fill="#263238"/>
<path d="M509.6 168.305C508.371 178.495 508.234 184.492 502.77 189.71C501.077 191.442 498.938 192.672 496.59 193.265C494.242 193.857 491.775 193.789 489.463 193.069C487.151 192.348 485.083 191.002 483.488 189.18C481.892 187.358 480.831 185.131 480.422 182.744C478.769 173.591 481.051 158.47 491.268 154.413C493.415 153.466 495.776 153.11 498.107 153.383C500.437 153.656 502.652 154.547 504.522 155.964C506.392 157.382 507.849 159.273 508.742 161.443C509.635 163.613 509.931 165.982 509.6 168.305Z" fill="#E58A7B"/>
<path d="M492.811 160.724C500.379 158.798 505.939 157.486 503.944 163.784C501.308 172.198 498.139 180.34 502.387 180.708C504.982 180.941 516.457 176.078 514.995 171.146C513.725 166.857 519.093 165.682 520.049 163.51C523.587 155.642 513.465 156.68 515.268 151.899C517.072 147.118 507.072 139.414 501.608 143.253C492.716 149.454 477.458 149.359 485.476 139.155C491.227 131.874 480.968 133.363 480.968 133.363C480.968 133.363 487.17 137.037 476.734 142.72C465.696 148.785 475.818 165.081 492.811 160.724Z" fill="#263238"/>
<path d="M513.615 179.534C512.121 181.696 509.877 183.224 507.318 183.823C503.944 184.547 502.646 181.528 503.917 178.496C505.05 175.764 508.165 172.089 511.389 172.717C514.612 173.346 515.35 176.856 513.615 179.534Z" fill="#E58A7B"/>
<path d="M463.619 297.706C463.619 297.706 454.385 380.349 453.661 411.712C452.923 444.332 484.956 546.113 484.956 546.113L501.348 539.283C501.348 539.283 482.224 446.286 484.956 414.253C487.852 379.325 499.818 297.761 499.818 297.761L463.619 297.706Z" fill="#003D9E"/>
<path opacity="0.2" d="M486.569 320.395C479.206 335.667 484.165 365.869 488.154 383.764C489.67 371.128 491.473 357.414 493.181 344.724C493.017 325.217 491.5 310.15 486.569 320.395Z" fill="black"/>
<path d="M500.625 533.874C500.707 533.874 502.565 539.092 502.565 539.092L483.66 547.042L480.682 541.496L500.625 533.874Z" fill="#003D9E"/>
<path d="M483.141 297.706C483.141 297.706 490.203 376.306 494.875 405.743C500.011 437.994 520.146 545.403 520.146 545.403H538.983C538.983 545.403 527.7 440.603 525.569 408.666C523.246 374.024 518.629 297.706 518.629 297.706H483.141Z" fill="#003D9E"/>
<path d="M539.268 540.499C539.35 540.499 539.897 545.758 539.897 545.758H519.188L517.713 539.721L539.268 540.499Z" fill="#003D9E"/>
<path opacity="0.2" d="M532.057 534.27C532.014 534.27 531.972 534.255 531.94 534.228C531.907 534.2 531.886 534.162 531.879 534.12C531.77 533.163 521.593 438.5 519.681 409.814C517.604 378.696 513.424 309.672 513.383 308.975C513.381 308.953 513.384 308.93 513.392 308.909C513.399 308.887 513.411 308.867 513.426 308.851C513.442 308.834 513.46 308.821 513.481 308.812C513.502 308.802 513.525 308.798 513.547 308.798C513.592 308.798 513.635 308.815 513.668 308.845C513.701 308.875 513.721 308.917 513.725 308.962C513.725 309.658 517.946 378.628 520.022 409.8C521.935 438.486 532.111 533.081 532.207 534.106C532.211 534.128 532.21 534.152 532.204 534.174C532.199 534.196 532.188 534.217 532.174 534.235C532.16 534.253 532.142 534.268 532.122 534.278C532.102 534.289 532.079 534.296 532.057 534.297V534.27Z" fill="black"/>
<path d="M493.972 171.146C493.972 171.979 493.453 172.649 492.907 172.649C492.36 172.649 491.964 171.979 492.019 171.146C492.073 170.313 492.538 169.644 493.084 169.644C493.631 169.644 494.027 170.327 493.972 171.146Z" fill="#263238"/>
<path d="M484.601 171.146C484.601 171.979 484.068 172.649 483.535 172.649C483.003 172.649 482.593 171.979 482.634 171.146C482.675 170.313 483.166 169.644 483.713 169.644C484.259 169.644 484.655 170.327 484.601 171.146Z" fill="#263238"/>
<path d="M487.553 171.569C486.413 174.114 484.943 176.497 483.182 178.659C484.548 180.025 487.102 179.397 487.102 179.397L487.553 171.569Z" fill="#DF5753"/>
<path d="M487.797 182.881C487.765 182.881 487.734 182.874 487.705 182.862C487.676 182.849 487.65 182.831 487.628 182.808C487.606 182.785 487.589 182.758 487.578 182.728C487.568 182.698 487.563 182.666 487.565 182.635C487.568 182.568 487.597 182.506 487.646 182.46C487.694 182.414 487.758 182.389 487.824 182.389C488.869 182.396 489.902 182.169 490.848 181.725C491.793 181.28 492.627 180.63 493.288 179.821C493.336 179.78 493.396 179.757 493.459 179.757C493.522 179.757 493.583 179.78 493.63 179.821C493.674 179.867 493.699 179.928 493.699 179.992C493.699 180.055 493.674 180.117 493.63 180.162C492.922 181.022 492.031 181.713 491.022 182.183C490.012 182.653 488.911 182.892 487.797 182.881Z" fill="#263238"/>
<path d="M495.639 168.633C495.573 168.667 495.5 168.684 495.427 168.684C495.353 168.684 495.281 168.667 495.215 168.633C494.704 168.303 494.123 168.097 493.517 168.033C492.912 167.969 492.301 168.048 491.732 168.264C491.676 168.292 491.616 168.308 491.554 168.312C491.492 168.316 491.43 168.308 491.371 168.288C491.313 168.267 491.259 168.235 491.213 168.194C491.167 168.152 491.13 168.102 491.103 168.046C491.053 167.924 491.051 167.788 491.1 167.665C491.148 167.543 491.243 167.444 491.363 167.39C492.077 167.098 492.851 166.983 493.619 167.055C494.387 167.126 495.127 167.382 495.775 167.8C495.827 167.836 495.872 167.881 495.907 167.934C495.941 167.987 495.965 168.047 495.977 168.109C495.988 168.171 495.987 168.235 495.973 168.297C495.96 168.359 495.934 168.417 495.898 168.469C495.829 168.548 495.739 168.604 495.639 168.633Z" fill="#263238"/>
<path d="M480.981 165.901C480.908 165.883 480.842 165.845 480.79 165.791C480.745 165.747 480.708 165.694 480.684 165.635C480.659 165.577 480.646 165.514 480.646 165.45C480.646 165.386 480.659 165.323 480.684 165.265C480.708 165.206 480.745 165.153 480.79 165.108C481.313 164.521 481.966 164.063 482.695 163.769C483.425 163.475 484.213 163.354 484.997 163.415C485.06 163.424 485.12 163.447 485.174 163.481C485.228 163.515 485.274 163.559 485.31 163.612C485.346 163.664 485.371 163.724 485.383 163.786C485.395 163.848 485.394 163.913 485.38 163.975C485.35 164.101 485.276 164.213 485.17 164.288C485.065 164.364 484.935 164.398 484.806 164.384C484.185 164.345 483.564 164.448 482.989 164.685C482.414 164.921 481.9 165.286 481.487 165.75C481.424 165.82 481.344 165.87 481.255 165.897C481.166 165.923 481.071 165.925 480.981 165.901Z" fill="#263238"/>
<path d="M532.371 221.729L518.164 217.945C518.164 217.945 504.231 252.246 499.3 254.472C492.606 257.532 475.654 268.132 468.442 273.145C468.046 274.853 468.36 279.374 469.262 280.617C481.556 278.377 505.092 269.321 510.009 264.717C521.224 254.213 532.371 221.729 532.371 221.729Z" fill="#E58A7B"/>
<path d="M522.453 559.924C521.759 559.979 521.069 559.791 520.499 559.391C520.323 559.232 520.192 559.031 520.118 558.805C520.043 558.58 520.029 558.34 520.076 558.107C520.084 557.962 520.132 557.822 520.214 557.702C520.296 557.582 520.408 557.486 520.54 557.424C521.688 556.837 524.898 558.872 525.267 559.104C525.307 559.129 525.338 559.167 525.356 559.211C525.373 559.256 525.375 559.305 525.362 559.35C525.351 559.398 525.327 559.442 525.293 559.478C525.26 559.514 525.218 559.54 525.171 559.555C524.28 559.774 523.369 559.898 522.453 559.924ZM521.087 557.793C520.983 557.77 520.876 557.77 520.772 557.793C520.72 557.82 520.677 557.861 520.648 557.912C520.618 557.963 520.605 558.021 520.609 558.08C520.572 558.239 520.578 558.405 520.626 558.561C520.674 558.716 520.762 558.857 520.882 558.968C521.415 559.446 522.753 559.501 524.515 559.159C523.466 558.468 522.284 558.003 521.046 557.793H521.087Z" fill="#003D9E"/>
<path d="M525.103 559.555C525.067 559.567 525.029 559.567 524.993 559.555C523.969 558.981 522.043 556.728 522.33 555.58C522.372 555.398 522.475 555.236 522.621 555.12C522.768 555.003 522.949 554.939 523.136 554.938C523.319 554.914 523.505 554.929 523.682 554.983C523.859 555.037 524.022 555.129 524.16 555.252C525.294 556.222 525.362 559.2 525.362 559.35C525.369 559.395 525.36 559.441 525.338 559.481C525.316 559.52 525.281 559.551 525.239 559.569C525.193 559.578 525.146 559.573 525.103 559.555ZM523.272 555.389H523.176C522.862 555.389 522.821 555.566 522.808 555.635C522.644 556.304 523.859 558.012 524.87 558.818C524.866 557.664 524.508 556.539 523.846 555.594C523.687 555.456 523.482 555.382 523.272 555.389Z" fill="#003D9E"/>
<path d="M486.185 558.216C485.349 558.507 484.439 558.507 483.604 558.216C483.414 558.113 483.253 557.964 483.136 557.783C483.019 557.601 482.95 557.393 482.934 557.178C482.917 557.043 482.934 556.905 482.984 556.779C483.035 556.652 483.116 556.54 483.221 556.454C484.314 555.47 488.781 556.454 489.286 556.645C489.334 556.657 489.377 556.686 489.406 556.726C489.436 556.765 489.452 556.814 489.45 556.864C489.452 556.915 489.439 556.966 489.412 557.009C489.385 557.053 489.346 557.088 489.3 557.109C488.294 557.564 487.252 557.934 486.185 558.216ZM483.959 556.59C483.803 556.622 483.657 556.692 483.535 556.795C483.492 556.828 483.458 556.872 483.439 556.923C483.42 556.974 483.415 557.029 483.426 557.082C483.435 557.226 483.48 557.364 483.556 557.486C483.632 557.608 483.738 557.708 483.863 557.779C484.587 558.161 486.267 557.861 488.439 556.946C486.976 556.577 485.462 556.456 483.959 556.59Z" fill="#003D9E"/>
<path d="M489.26 557.11H489.151C487.785 556.864 485.053 555.293 484.971 554.118C484.971 553.845 485.094 553.462 485.749 553.244C485.971 553.165 486.206 553.132 486.441 553.146C486.675 553.16 486.905 553.221 487.115 553.326C488.591 554.05 489.369 556.673 489.41 556.795C489.42 556.837 489.419 556.88 489.407 556.921C489.395 556.961 489.372 556.998 489.342 557.028C489.322 557.061 489.293 557.089 489.26 557.11ZM486.023 553.654H485.886C485.462 553.804 485.462 553.982 485.462 554.036C485.462 554.747 487.443 556.044 488.823 556.481C488.505 555.384 487.833 554.423 486.91 553.749C486.636 553.61 486.32 553.576 486.023 553.654Z" fill="#003D9E"/>
<path d="M469.603 272.34L455.356 278.897L453.703 282.995L458.962 286.533C458.962 286.533 468.797 285.467 471.598 279.143L469.603 272.34Z" fill="#E58A7B"/>
<path d="M470.203 280.85C469.884 278.113 468.981 275.476 467.553 273.119L469.807 271.425C471.502 274.141 472.584 277.194 472.976 280.372L470.203 280.85Z" fill="#263238"/>
<path d="M472.635 274.28C472.936 274.754 473.084 275.309 473.059 275.869C473.033 276.43 472.836 276.97 472.493 277.414C472.15 277.859 471.679 278.187 471.143 278.354C470.607 278.521 470.033 278.519 469.498 278.348C468.963 278.177 468.494 277.846 468.154 277.399C467.815 276.952 467.621 276.411 467.6 275.85C467.578 275.289 467.73 274.735 468.035 274.263C468.339 273.792 468.782 273.426 469.302 273.214C469.886 272.917 470.564 272.862 471.188 273.061C471.812 273.261 472.332 273.699 472.635 274.28Z" fill="#263238"/>
<path d="M445.725 284.197L447.623 286.109L460.409 280.645L455.355 278.896L445.725 284.197Z" fill="#E58A7B"/>
<path opacity="0.2" d="M500.625 533.874C500.707 533.874 502.565 539.092 502.565 539.092L483.66 547.042L480.682 541.496L500.625 533.874Z" fill="black"/>
<path opacity="0.2" d="M539.268 540.499C539.35 540.499 539.897 545.758 539.897 545.758H519.188L517.713 539.721L539.268 540.499Z" fill="black"/>
<path d="M536.072 217.795C539.829 229.911 525.144 246.481 525.144 246.481L504.859 238.203C507.264 231.2 510.036 224.328 513.165 217.617C519.394 204.189 532.275 205.569 536.072 217.795Z" fill="#003D9E"/>
<path opacity="0.2" d="M536.072 217.795C539.829 229.911 525.144 246.481 525.144 246.481L504.859 238.203C507.264 231.2 510.036 224.328 513.165 217.617C519.394 204.189 532.275 205.569 536.072 217.795Z" fill="black"/>
<path d="M334.506 96.3984H325.777V97.8054H334.506V96.3984Z" fill="#003D9E"/>
<path d="M447.5 152.085L446.443 175.529L447.849 175.593L448.905 152.149L447.5 152.085Z" fill="#003D9E"/>
<path d="M444.784 102.709H283.596L268.598 438.362H429.786L444.784 102.709Z" fill="#003D9E"/>
<path opacity="0.56" d="M439.976 107.326H278.788L263.789 442.98H424.977L439.976 107.326Z" fill="#FAFAFA"/>
<path opacity="0.07" d="M435.167 111.93H273.979L258.967 447.583H420.155L435.167 111.93Z" fill="#003D9E"/>
<path d="M416.821 258.324H279.237L278.09 284.005H415.673L416.821 258.324Z" fill="white"/>
<path d="M354.901 239.583H280.072L279.566 251.071H354.396L354.901 239.583Z" fill="#003D9E"/>
<path d="M413.721 327.635H276.138L274.99 353.316H412.574L413.721 327.635Z" fill="white"/>
<path opacity="0.47" d="M388.491 387.998H295.971L294.592 418.774H387.111L388.491 387.998Z" fill="#003D9E"/>
<path d="M382.303 423.555H289.783C289.743 423.566 289.701 423.566 289.661 423.555C289.647 423.515 289.647 423.472 289.661 423.432L291.027 392.643C291.026 392.622 291.031 392.601 291.039 392.582C291.048 392.563 291.06 392.545 291.075 392.531C291.091 392.517 291.109 392.506 291.129 392.5C291.149 392.493 291.17 392.49 291.19 392.492H383.71C383.727 392.484 383.745 392.479 383.764 392.479C383.783 392.479 383.802 392.484 383.819 392.492C383.829 392.509 383.834 392.528 383.834 392.547C383.834 392.566 383.829 392.585 383.819 392.602L382.48 423.46C382.464 423.492 382.438 423.518 382.406 423.535C382.375 423.552 382.338 423.559 382.303 423.555ZM289.947 423.227H382.139L383.505 392.766H291.313L289.947 423.227Z" fill="white"/>
<path d="M338.741 308.894H276.97L276.465 320.395H338.222L338.741 308.894Z" fill="#003D9E"/>
<path d="M386.73 175.367C386.377 182.84 383.719 190.022 379.121 195.925C375.718 200.384 371.338 204.003 366.318 206.506C361.298 209.009 355.771 210.329 350.162 210.363C345.629 210.398 341.137 209.504 336.963 207.737C332.788 205.97 329.02 203.367 325.89 200.088C322.76 196.809 320.334 192.925 318.762 188.673C317.19 184.421 316.505 179.893 316.749 175.367C317.23 165.974 321.28 157.12 328.072 150.614C334.865 144.109 343.885 140.444 353.29 140.37C357.826 140.327 362.323 141.216 366.502 142.98C370.682 144.744 374.455 147.346 377.589 150.626C380.723 153.906 383.151 157.794 384.723 162.049C386.295 166.304 386.978 170.837 386.73 175.367Z" fill="white"/>
<path d="M390.021 147.692C389.932 149.679 389.225 151.589 387.999 153.156C387.092 154.34 385.927 155.301 384.591 155.966C383.256 156.632 381.787 156.983 380.295 156.994C378.85 157.003 377.424 156.658 376.143 155.988C374.862 155.319 373.764 154.347 372.946 153.156C371.862 151.546 371.326 149.63 371.416 147.692C371.548 145.198 372.627 142.848 374.431 141.122C376.236 139.396 378.631 138.424 381.128 138.403C382.333 138.392 383.527 138.628 384.637 139.096C385.747 139.564 386.75 140.254 387.583 141.124C388.416 141.995 389.062 143.026 389.482 144.156C389.901 145.285 390.084 146.488 390.021 147.692Z" fill="#003D9E"/>
<path d="M294.059 271.165C293.993 272.265 293.513 273.3 292.714 274.061C291.916 274.821 290.859 275.251 289.756 275.263C289.223 275.269 288.695 275.166 288.204 274.96C287.713 274.754 287.27 274.45 286.901 274.066C286.532 273.682 286.246 273.226 286.061 272.727C285.875 272.228 285.794 271.696 285.822 271.165C285.881 270.062 286.36 269.023 287.159 268.261C287.959 267.499 289.02 267.072 290.125 267.067C290.657 267.062 291.184 267.166 291.674 267.373C292.164 267.58 292.607 267.884 292.975 268.268C293.343 268.651 293.629 269.106 293.816 269.604C294.002 270.102 294.085 270.633 294.059 271.165Z" fill="#263238"/>
<path d="M312.473 271.165C312.41 272.267 311.931 273.303 311.132 274.065C310.333 274.826 309.274 275.254 308.17 275.263C307.639 275.267 307.112 275.163 306.623 274.956C306.133 274.749 305.691 274.445 305.324 274.061C304.957 273.677 304.672 273.222 304.487 272.724C304.302 272.226 304.222 271.695 304.25 271.165C304.309 270.064 304.785 269.027 305.582 268.266C306.379 267.504 307.437 267.076 308.539 267.067C309.071 267.06 309.599 267.163 310.09 267.369C310.581 267.575 311.025 267.879 311.394 268.263C311.762 268.648 312.048 269.103 312.234 269.602C312.42 270.101 312.501 270.633 312.473 271.165Z" fill="#263238"/>
<path d="M330.9 271.165C330.837 272.267 330.358 273.303 329.559 274.065C328.76 274.826 327.701 275.254 326.597 275.263C326.065 275.267 325.538 275.163 325.048 274.956C324.558 274.75 324.115 274.445 323.747 274.062C323.378 273.678 323.092 273.223 322.906 272.725C322.72 272.227 322.637 271.696 322.663 271.165C322.725 270.063 323.205 269.026 324.004 268.265C324.803 267.504 325.862 267.075 326.966 267.067C327.498 267.06 328.026 267.163 328.517 267.369C329.008 267.575 329.452 267.879 329.821 268.263C330.189 268.648 330.475 269.103 330.661 269.602C330.847 270.101 330.928 270.633 330.9 271.165Z" fill="#263238"/>
<path d="M290.958 340.475C290.893 341.576 290.412 342.611 289.614 343.371C288.815 344.132 287.758 344.561 286.656 344.573C286.124 344.577 285.597 344.473 285.106 344.267C284.616 344.06 284.174 343.756 283.805 343.372C283.437 342.988 283.151 342.533 282.964 342.035C282.778 341.537 282.695 341.006 282.721 340.475C282.784 339.373 283.263 338.336 284.063 337.575C284.862 336.814 285.921 336.386 287.024 336.377C287.556 336.373 288.083 336.477 288.573 336.684C289.064 336.89 289.506 337.194 289.875 337.578C290.243 337.962 290.529 338.417 290.715 338.915C290.902 339.413 290.985 339.944 290.958 340.475Z" fill="#263238"/>
<path d="M309.371 340.475C309.309 341.575 308.831 342.609 308.035 343.37C307.239 344.131 306.183 344.561 305.082 344.573C304.55 344.579 304.022 344.477 303.531 344.271C303.04 344.065 302.596 343.76 302.227 343.376C301.859 342.992 301.572 342.537 301.387 342.038C301.201 341.539 301.12 341.007 301.148 340.475C301.21 339.373 301.69 338.336 302.489 337.575C303.288 336.814 304.347 336.386 305.451 336.377C305.982 336.373 306.509 336.477 306.998 336.684C307.488 336.89 307.929 337.195 308.297 337.579C308.664 337.963 308.949 338.418 309.134 338.916C309.318 339.414 309.399 339.945 309.371 340.475Z" fill="#263238"/>
<path d="M327.841 340.475C327.778 341.577 327.299 342.614 326.499 343.375C325.7 344.136 324.641 344.565 323.538 344.573C323.006 344.576 322.48 344.47 321.991 344.263C321.502 344.056 321.06 343.751 320.692 343.368C320.324 342.985 320.038 342.531 319.851 342.033C319.664 341.536 319.58 341.006 319.604 340.475C319.669 339.374 320.15 338.34 320.948 337.579C321.747 336.819 322.804 336.389 323.907 336.377C324.439 336.371 324.967 336.474 325.458 336.68C325.949 336.885 326.393 337.19 326.761 337.574C327.13 337.958 327.416 338.414 327.602 338.913C327.787 339.412 327.869 339.944 327.841 340.475Z" fill="#263238"/>
<path d="M346.227 340.475C346.162 341.576 345.681 342.611 344.883 343.371C344.084 344.132 343.027 344.561 341.924 344.573C341.393 344.575 340.867 344.47 340.378 344.263C339.889 344.055 339.447 343.751 339.079 343.368C338.711 342.984 338.425 342.53 338.237 342.033C338.05 341.536 337.966 341.006 337.99 340.475C338.056 339.374 338.536 338.339 339.335 337.579C340.133 336.818 341.191 336.389 342.293 336.377C342.825 336.373 343.352 336.477 343.842 336.684C344.332 336.89 344.775 337.194 345.144 337.578C345.512 337.962 345.798 338.417 345.984 338.915C346.171 339.413 346.253 339.944 346.227 340.475Z" fill="#263238"/>
<path d="M364.723 340.475C364.657 341.576 364.177 342.611 363.378 343.371C362.58 344.132 361.523 344.561 360.42 344.573C359.888 344.579 359.36 344.477 358.869 344.271C358.377 344.065 357.934 343.76 357.565 343.376C357.196 342.992 356.91 342.537 356.725 342.038C356.539 341.539 356.458 341.007 356.486 340.475C356.548 339.373 357.028 338.336 357.827 337.575C358.626 336.814 359.685 336.386 360.789 336.377C361.321 336.373 361.848 336.477 362.338 336.684C362.828 336.89 363.271 337.194 363.639 337.578C364.007 337.962 364.294 338.417 364.48 338.915C364.666 339.413 364.749 339.944 364.723 340.475Z" fill="#263238"/>
<path d="M361.926 173.544C367.644 167.953 367.947 158.991 362.604 153.527C357.261 148.063 348.294 148.166 342.577 153.757C336.86 159.348 336.556 168.31 341.899 173.774C347.243 179.238 356.209 179.135 361.926 173.544Z" fill="#003D9E"/>
<path d="M379.121 195.925C375.717 200.384 371.337 204.004 366.317 206.507C361.297 209.009 355.771 210.329 350.161 210.364C344.722 210.41 339.355 209.117 334.534 206.599C329.712 204.081 325.584 200.415 322.514 195.925C329.152 189.314 339.657 184.997 351.295 184.997C362.934 184.997 373.069 189.314 379.121 195.925Z" fill="#003D9E"/>
<path opacity="0.1" d="M361.926 173.544C367.644 167.953 367.947 158.991 362.604 153.527C357.261 148.063 348.294 148.166 342.577 153.757C336.86 159.348 336.556 168.31 341.899 173.774C347.243 179.238 356.209 179.135 361.926 173.544Z" fill="white"/>
<path opacity="0.1" d="M379.121 195.925C375.717 200.384 371.337 204.004 366.317 206.507C361.297 209.009 355.771 210.329 350.161 210.364C344.722 210.41 339.355 209.117 334.534 206.599C329.712 204.081 325.584 200.415 322.514 195.925C329.152 189.314 339.657 184.997 351.295 184.997C362.934 184.997 373.069 189.314 379.121 195.925Z" fill="white"/>
<path d="M178.141 290.193C176.843 293.034 175.477 296.162 174.289 299.195C173.1 302.227 171.885 305.356 170.833 308.47C168.685 314.608 167.049 320.913 165.942 327.321L165.642 329.329C165.613 329.673 165.646 330.02 165.738 330.353C166.06 331.486 166.568 332.556 167.24 333.523C168.994 336.023 171.029 338.315 173.305 340.353C175.705 342.584 178.222 344.686 180.846 346.65C183.468 348.671 186.228 350.638 188.946 352.496L186.391 357.291C179.901 354.463 173.739 350.931 168.019 346.759C164.967 344.533 162.212 341.926 159.823 339C158.406 337.259 157.302 335.285 156.558 333.167C156.126 331.844 155.904 330.461 155.902 329.069C155.902 328.742 155.902 328.263 155.902 328.031V327.362L156.039 325.996C156.822 318.879 158.319 311.859 160.506 305.041C161.571 301.681 162.705 298.334 164.003 295.07C165.3 291.805 166.639 288.608 168.292 285.289L178.141 290.193Z" fill="#E58A7B"/>
<path d="M187.019 351.649L196.677 346.759L194.177 357.359C194.177 357.359 187.552 359.217 184.479 355.993L187.019 351.649Z" fill="#E58A7B"/>
<path d="M205.516 348.494L202.947 357.263L194.178 357.359L196.678 346.759L205.516 348.494Z" fill="#E58A7B"/>
<path d="M219.148 239.05C219.665 240.943 220.384 242.775 221.293 244.514C221.027 244.815 220.685 245.039 220.303 245.161C219.921 245.284 219.512 245.301 219.121 245.21L219.148 239.05Z" fill="#DF5753"/>
<path d="M218.86 239.132C219.426 239.132 219.885 238.429 219.885 237.561C219.885 236.694 219.426 235.99 218.86 235.99C218.295 235.99 217.836 236.694 217.836 237.561C217.836 238.429 218.295 239.132 218.86 239.132Z" fill="#263238"/>
<path d="M218.561 236.044L220.637 235.457C220.637 235.457 219.626 237.069 218.561 236.044Z" fill="#263238"/>
<path d="M192.469 249.076C193.712 255.428 194.955 267.08 190.502 271.328C190.502 271.328 192.25 277.776 204.066 277.776C217.057 277.776 210.268 271.328 210.268 271.328C203.178 269.634 203.356 264.375 204.599 259.43L192.469 249.076Z" fill="#E58A7B"/>
<path d="M189.013 234.597C189.669 245.211 189.723 249.718 195.078 255.169C203.151 263.365 216.046 260.25 218.573 249.705C220.854 240.143 219.406 224.406 209.011 220.185C206.729 219.245 204.245 218.903 201.794 219.191C199.343 219.478 197.006 220.387 195.004 221.829C193.002 223.272 191.401 225.202 190.353 227.436C189.304 229.67 188.843 232.135 189.013 234.597Z" fill="#E58A7B"/>
<path d="M190.066 222.657C184.739 224.597 177.636 223.149 180.422 239.582C183.373 256.985 178.838 262.709 178.838 262.709C178.838 262.709 199.041 267.011 219.668 262.449C219.668 262.449 213.37 251.439 215.133 243.325C217.386 233.08 215.611 229.296 215.611 229.296C215.611 229.296 197.552 219.925 190.066 222.657Z" fill="#263238"/>
<path d="M212.604 240.129C212.609 242.147 213.187 244.122 214.27 245.825C215.718 248.038 217.425 247.191 217.849 244.841C218.231 242.779 217.945 239.132 216.1 237.711C214.256 236.29 212.631 237.684 212.604 240.129Z" fill="#E58A7B"/>
<path d="M185.436 224.447C183.906 220.144 191.2 213.519 206.636 216.251C222.072 218.983 222.741 231.837 222.741 231.837L219.627 228.122L219.763 232.028L203.904 235.075L185.436 224.447Z" fill="#263238"/>
<path d="M186.746 272.052C186.655 271.429 186.811 270.794 187.181 270.284C187.551 269.773 188.106 269.428 188.727 269.32C193.535 268.528 204.463 266.916 209.954 267.681C214.052 268.255 215.118 270.632 215.295 272.585C215.323 272.927 215.278 273.271 215.161 273.594C215.045 273.917 214.861 274.211 214.622 274.457C214.382 274.703 214.093 274.895 213.773 275.02C213.454 275.144 213.111 275.199 212.768 275.181L189.027 274.115C188.468 274.087 187.935 273.866 187.519 273.49C187.103 273.114 186.83 272.606 186.746 272.052Z" fill="#003D9E"/>
<path opacity="0.6" d="M186.746 272.052C186.655 271.429 186.811 270.794 187.181 270.284C187.551 269.773 188.106 269.428 188.727 269.32C193.535 268.528 204.463 266.916 209.954 267.681C214.052 268.255 215.118 270.632 215.295 272.585C215.323 272.927 215.278 273.271 215.161 273.594C215.045 273.917 214.861 274.211 214.622 274.457C214.382 274.703 214.093 274.895 213.773 275.02C213.454 275.144 213.111 275.199 212.768 275.181L189.027 274.115C188.468 274.087 187.935 273.866 187.519 273.49C187.103 273.114 186.83 272.606 186.746 272.052Z" fill="black"/>
<path d="M200.475 510.693L209.285 516.812L224.024 496.828L215.214 490.722L200.475 510.693Z" fill="#E58A7B"/>
<path d="M179.93 510.296L189.232 515.596L202.277 494.464L192.975 489.164L179.93 510.296Z" fill="#E58A7B"/>
<path d="M224.011 496.828L216.416 507.127L207.605 501.021L215.2 490.722L224.011 496.828Z" fill="#CF6F64"/>
<path d="M192.961 489.164L202.277 494.478L195.556 505.365L186.24 500.051L192.961 489.164Z" fill="#CF6F64"/>
<path d="M207.905 338.768C207.905 338.768 242.301 382.111 235.84 423.569C230.636 457.049 200.447 502.387 200.447 502.387L186.254 495.338C196.258 475.293 204.795 454.548 211.799 433.267C213.958 426.661 214.588 419.649 213.642 412.763C212.695 405.877 210.197 399.296 206.335 393.517C188.904 368.068 160.983 383.217 179.766 338.768H207.905Z" fill="#003D9E"/>
<path opacity="0.6" d="M207.905 338.768C207.905 338.768 242.301 382.111 235.84 423.569C230.636 457.049 200.447 502.387 200.447 502.387L186.254 495.338C196.258 475.293 204.795 454.548 211.799 433.267C213.958 426.661 214.588 419.649 213.642 412.763C212.695 405.877 210.197 399.296 206.335 393.517C188.904 368.068 160.983 383.217 179.766 338.768H207.905Z" fill="black"/>
<path opacity="0.4" d="M224.775 366.607L219.775 361.635C219.775 362.031 229.46 421.821 232.179 438.623C233.783 433.714 235.011 428.691 235.853 423.597C239.05 403.257 232.37 382.48 224.775 366.607Z" fill="black"/>
<path d="M223.26 338.768C223.26 338.768 264.677 393.244 265.852 425.905C266.822 453.225 220.774 506.157 220.774 506.157L207.387 497.497C207.387 497.497 234.338 459.904 241.127 429.197C238.505 398.762 183.045 338.768 183.045 338.768H223.26Z" fill="#003D9E"/>
<path opacity="0.6" d="M223.26 338.768C223.26 338.768 264.677 393.244 265.852 425.905C266.822 453.225 220.774 506.157 220.774 506.157L207.387 497.497C207.387 497.497 234.338 459.904 241.127 429.197C238.505 398.762 183.045 338.768 183.045 338.768H223.26Z" fill="black"/>
<path d="M172.02 273.759C167.594 274.811 163.346 290.903 163.346 290.903L180.653 302.459C180.653 302.459 186.417 289.728 184.396 284.154C182.306 278.349 177.579 272.434 172.02 273.759Z" fill="#003D9E"/>
<path opacity="0.2" d="M175.409 284.128L174.207 298.157L180.641 302.473C182.417 298.474 183.733 294.285 184.561 289.988L175.409 284.128Z" fill="black"/>
<path d="M228.383 274.074C228.383 274.074 233.491 275.864 223.26 338.754H179.739C180.477 320.996 180.491 310.068 172.021 273.76C178.115 272.504 184.292 271.692 190.503 271.328C197.084 270.857 203.689 270.857 210.269 271.328C218.766 272.107 228.383 274.074 228.383 274.074Z" fill="#003D9E"/>
<path d="M232.807 284.128C233.791 286.86 234.829 289.797 235.922 292.625C237.015 295.452 238.053 298.362 239.159 301.23L242.506 309.809L243.353 311.953L243.79 313.019L243.995 313.552C243.995 313.647 243.995 313.647 243.995 313.634C243.745 313.282 243.418 312.992 243.039 312.787C242.498 312.469 241.889 312.286 241.263 312.254C240.743 312.238 240.225 312.336 239.747 312.541C239.118 312.828 239.118 312.951 239.132 312.937C239.246 312.846 239.347 312.74 239.432 312.623C240.189 311.63 240.843 310.564 241.386 309.44C242.028 308.183 242.643 306.845 243.257 305.492C244.459 302.76 245.566 299.933 246.672 297.078C247.779 294.223 248.831 291.34 249.855 288.431L252.97 279.716L258.229 281.082C257.19 287.311 255.852 293.376 254.24 299.55C253.461 302.624 252.546 305.67 251.508 308.743C250.989 310.287 250.415 311.817 249.759 313.388C249.076 315.093 248.235 316.73 247.246 318.278C246.883 318.799 246.481 319.292 246.044 319.753C245.346 320.507 244.5 321.107 243.558 321.515C242.722 321.874 241.817 322.042 240.908 322.007C239.89 321.969 238.898 321.673 238.026 321.147C236.996 320.504 236.142 319.617 235.539 318.565C235.334 318.21 235.157 317.855 235.034 317.595L234.774 317.076L234.255 316.01L233.217 313.893C231.851 311.052 230.485 308.183 229.297 305.301C228.108 302.419 226.852 299.496 225.677 296.559C224.502 293.622 223.45 290.685 222.453 287.516L232.807 284.128Z" fill="#E58A7B"/>
<path d="M228.382 274.073C233.614 275.316 239.501 290.78 239.501 290.78L223.942 304.016C223.942 304.016 213.875 287.16 215.91 281.6C218.028 275.808 221.552 272.448 228.382 274.073Z" fill="#003D9E"/>
<path d="M255.442 274.825L260.906 270.263L264.704 276.177L261.903 281.109C261.903 281.109 257.45 285.207 253.516 283.117C252.892 281.713 252.742 280.144 253.089 278.648C253.437 277.152 254.263 275.81 255.442 274.825Z" fill="#E58A7B"/>
<path d="M270.769 270.276L270.359 271.765L261.712 273.213L260.865 270.263L270.769 270.276Z" fill="#E58A7B"/>
<path d="M221.838 506.854L206.238 496.773L209.039 491.91L226.564 502.688L221.838 506.854Z" fill="#003D9E"/>
<path d="M195.338 514.886C193.969 514.719 192.654 514.252 191.485 513.52C191.437 513.503 191.395 513.472 191.366 513.43C191.336 513.388 191.32 513.339 191.32 513.288C191.32 513.237 191.336 513.187 191.366 513.145C191.395 513.104 191.437 513.072 191.485 513.055C191.909 512.919 195.583 511.785 196.649 512.659C196.769 512.759 196.86 512.889 196.912 513.035C196.965 513.181 196.978 513.339 196.949 513.493C196.93 513.738 196.849 513.975 196.713 514.181C196.576 514.387 196.39 514.554 196.171 514.667C195.915 514.807 195.629 514.882 195.338 514.886ZM192.264 513.383C193.972 514.257 195.337 514.572 195.993 514.244C196.136 514.165 196.256 514.05 196.342 513.912C196.428 513.773 196.477 513.615 196.485 513.452C196.485 513.233 196.485 513.137 196.362 513.083C195.788 512.618 193.739 512.973 192.237 513.383H192.264Z" fill="#263238"/>
<path d="M191.582 513.616C191.51 513.615 191.441 513.585 191.39 513.534C191.37 513.496 191.359 513.454 191.359 513.411C191.359 513.368 191.37 513.326 191.39 513.288C191.39 513.165 192.278 510.201 193.672 509.531C193.85 509.45 194.043 509.408 194.238 509.408C194.434 509.408 194.627 509.45 194.805 509.531C194.997 509.592 195.163 509.715 195.277 509.881C195.391 510.047 195.446 510.246 195.434 510.447C195.338 511.676 192.838 513.37 191.691 513.657L191.582 513.616ZM194.232 509.887C194.099 509.891 193.968 509.923 193.849 509.982C193.002 510.392 192.306 511.99 191.964 512.96C193.166 512.455 194.819 511.116 194.874 510.365C194.874 510.242 194.874 510.091 194.559 509.955C194.457 509.9 194.346 509.863 194.232 509.846V509.887Z" fill="#263238"/>
<path d="M214.831 520.787C213.287 520.787 211.143 518.807 209.968 517.591C209.938 517.549 209.922 517.499 209.922 517.447C209.922 517.396 209.938 517.346 209.968 517.304C209.995 517.26 210.033 517.224 210.079 517.2C210.125 517.176 210.176 517.165 210.228 517.167C210.774 517.167 215.514 517.878 216.183 519.216C216.254 519.336 216.292 519.473 216.292 519.613C216.292 519.752 216.254 519.889 216.183 520.009C216.083 520.217 215.931 520.397 215.743 520.53C215.554 520.664 215.334 520.748 215.104 520.774L214.831 520.787ZM210.87 517.782C212.591 519.449 214.107 520.377 214.968 520.268C215.118 520.248 215.262 520.192 215.386 520.104C215.51 520.016 215.61 519.899 215.678 519.763C215.708 519.716 215.725 519.662 215.725 519.606C215.725 519.55 215.708 519.495 215.678 519.449C215.323 518.711 212.796 518.083 210.87 517.782Z" fill="#263238"/>
<path d="M211.02 517.714C210.714 517.723 210.407 517.7 210.105 517.646C210.063 517.639 210.023 517.622 209.99 517.596C209.956 517.57 209.93 517.535 209.914 517.496C209.893 517.455 209.883 517.411 209.883 517.366C209.883 517.321 209.893 517.276 209.914 517.236C209.996 517.14 211.84 514.914 213.588 514.764C214.083 514.725 214.574 514.882 214.954 515.201C215.487 515.665 215.46 516.075 215.323 516.334C214.982 517.263 212.619 517.714 211.02 517.714ZM210.665 517.209C212.195 517.291 214.64 516.785 214.954 516.116C214.954 516.116 215.064 515.897 214.709 515.597C214.567 515.474 214.402 515.381 214.223 515.325C214.045 515.269 213.857 515.249 213.67 515.269C212.493 515.598 211.444 516.279 210.665 517.222V517.209Z" fill="#263238"/>
<path d="M191.951 512.14L180.367 508.862C180.168 508.801 179.953 508.816 179.764 508.905C179.575 508.993 179.425 509.148 179.343 509.34L175.436 518.123C175.344 518.348 175.301 518.59 175.31 518.833C175.318 519.075 175.378 519.314 175.485 519.532C175.592 519.75 175.744 519.943 175.931 520.098C176.118 520.253 176.336 520.367 176.57 520.432C180.668 521.497 182.635 521.798 187.73 523.259C190.872 524.133 195.352 525.759 199.683 526.988C204.013 528.218 205.461 523.997 203.781 523.095C196.186 519.079 195.585 516.265 193.508 513.26C193.136 512.716 192.585 512.319 191.951 512.14Z" fill="#003D9E"/>
<path d="M210.282 515.992L200.392 509.162C200.224 509.04 200.017 508.984 199.811 509.004C199.604 509.024 199.413 509.119 199.272 509.272L192.715 516.32C192.555 516.502 192.436 516.716 192.365 516.948C192.295 517.18 192.274 517.424 192.305 517.665C192.336 517.905 192.418 518.136 192.545 518.342C192.672 518.548 192.842 518.725 193.043 518.861C196.526 521.197 198.329 522.139 202.687 525.158C205.419 527.016 210.705 531.141 214.393 533.709C218.081 536.277 220.827 532.753 219.516 531.36C213.642 525.09 212.358 521.156 211.388 517.591C211.22 516.944 210.828 516.378 210.282 515.992Z" fill="#003D9E"/>
<path d="M202.264 503.289L184.438 494.424L186.282 489.588L205.324 498.931L202.264 503.289Z" fill="#003D9E"/>
<path d="M179.082 336.2L177.58 340.134C177.429 340.434 177.785 340.748 178.29 340.748H223.477C223.873 340.748 224.201 340.557 224.229 340.311L224.611 336.405C224.611 336.145 224.297 335.913 223.873 335.913H179.793C179.66 335.9 179.526 335.92 179.403 335.97C179.279 336.02 179.169 336.099 179.082 336.2Z" fill="#003D9E"/>
<path opacity="0.4" d="M179.082 336.2L177.58 340.134C177.429 340.434 177.785 340.748 178.29 340.748H223.477C223.873 340.748 224.201 340.557 224.229 340.311L224.611 336.405C224.611 336.145 224.297 335.913 223.873 335.913H179.793C179.66 335.9 179.526 335.92 179.403 335.97C179.279 336.02 179.169 336.099 179.082 336.2Z" fill="white"/>
<path d="M186.201 341.131H185.012C184.78 341.131 184.602 341.008 184.616 340.858L185.176 335.79C185.176 335.653 185.395 335.53 185.627 335.53H186.815C187.047 335.53 187.225 335.653 187.211 335.79L186.651 340.858C186.638 341.008 186.433 341.131 186.201 341.131Z" fill="#003D9E"/>
<path d="M214.066 341.131H212.891C212.659 341.131 212.481 341.008 212.495 340.858L213.041 335.79C213.041 335.653 213.274 335.53 213.506 335.53H214.68C214.913 335.53 215.104 335.653 215.077 335.79L214.53 340.858C214.462 341.008 214.312 341.131 214.066 341.131Z" fill="#003D9E"/>
<g style="mix-blend-mode:multiply">
<path d="M185.162 572.463C205.372 572.463 221.757 571.277 221.757 569.813C221.757 568.35 205.372 567.163 185.162 567.163C164.951 567.163 148.566 568.35 148.566 569.813C148.566 571.277 164.951 572.463 185.162 572.463Z" fill="#F5F5F5"/>
</g>
<path d="M207.455 566.07C200.98 564.185 193.795 561.767 189.451 559.24C189.328 559.158 189.192 559.117 189.069 559.049V529.734H202.169C203.163 529.676 204.097 529.239 204.781 528.514C205.464 527.789 205.844 526.831 205.844 525.835C205.844 524.838 205.464 523.88 204.781 523.155C204.097 522.43 203.163 521.994 202.169 521.935H189.137V388.312H181.269V521.935H168.251C167.719 521.903 167.187 521.981 166.686 522.162C166.186 522.344 165.728 522.626 165.34 522.992C164.953 523.357 164.644 523.797 164.433 524.286C164.222 524.775 164.113 525.302 164.113 525.835C164.113 526.367 164.222 526.894 164.433 527.383C164.644 527.872 164.953 528.312 165.34 528.678C165.728 529.043 166.186 529.325 166.686 529.507C167.187 529.688 167.719 529.766 168.251 529.734H181.269V559.008C181.146 559.008 181.023 559.117 180.9 559.199C176.488 561.767 169.357 564.185 162.882 566.029C162.445 566.161 162.069 566.446 161.824 566.831C161.578 567.216 161.478 567.677 161.543 568.129C161.607 568.582 161.831 568.996 162.175 569.297C162.518 569.599 162.958 569.767 163.415 569.772H206.922C207.359 569.742 207.772 569.564 208.093 569.266C208.414 568.968 208.623 568.57 208.685 568.136C208.747 567.703 208.659 567.262 208.435 566.886C208.212 566.51 207.865 566.222 207.455 566.07Z" fill="#E0E0E0"/>
<path d="M209.463 374.707H160.888C156.98 374.707 153.812 377.875 153.812 381.783V396.222C153.812 400.129 156.98 403.297 160.888 403.297H209.463C213.371 403.297 216.539 400.129 216.539 396.222V381.783C216.539 377.875 213.371 374.707 209.463 374.707Z" fill="#003D9E"/>
<path d="M160.438 403.312V405.798C160.438 407.847 162.664 409.513 165.396 409.513H205.01C207.742 409.513 209.969 407.847 209.969 405.798V403.312H160.438Z" fill="#003D9E"/>
<path opacity="0.3" d="M160.438 403.312V405.798C160.438 407.847 162.664 409.513 165.396 409.513H205.01C207.742 409.513 209.969 407.847 209.969 405.798V403.312H160.438Z" fill="white"/>
</svg>
