<svg width="24" height="24" viewBox="0 0 24 24" fill="none" xmlns="http://www.w3.org/2000/svg">
<path d="M5.31122 21.009C4.2259 21.2143 3.17963 20.5009 2.9743 19.4156C2.92782 19.17 2.92782 18.9177 2.9743 18.6721L3.63427 15.1837C3.70898 14.7887 3.90097 14.4255 4.18519 14.1412L15.9025 2.42393C16.5112 1.81521 17.4412 1.6643 18.2111 2.04929L18.9807 2.43406C20.0922 2.98982 20.9935 3.89109 21.5492 5.0026L21.934 5.77215C22.319 6.54212 22.1681 7.47207 21.5593 8.08079L9.84205 19.7981C9.55783 20.0823 9.19456 20.2743 8.79962 20.349L5.31122 21.009ZM15.3522 5.80411L18.1806 8.63254L20.1451 6.66657L19.7604 5.89703C19.3981 5.17257 18.8107 4.58515 18.0863 4.22292L17.3167 3.83815L15.3522 5.80411ZM5.55307 15.804L8.18068 18.4316L8.42783 18.3839L16.7664 10.0468L13.9379 7.21833L5.59941 15.5555L5.55307 15.804Z" fill="black"/>
</svg>
