<?xml version="1.0" encoding="utf-8"?>
<!-- Generator: Adobe Illustrator 26.5.0, SVG Export Plug-In . SVG Version: 6.00 Build 0)  -->
<svg version="1.1" id="图层_1" xmlns="http://www.w3.org/2000/svg" xmlns:xlink="http://www.w3.org/1999/xlink" x="0px" y="0px"
	 viewBox="0 0 200 200" style="enable-background:new 0 0 200 200;" xml:space="preserve">
<style type="text/css">
	.st0{clip-path:url(#SVGID_00000076585323955596654150000014260875604531296140_);fill:#202425;}
</style>
<g>
	<g>
		<defs>
			<rect id="SVGID_1_" x="40.6" y="40.4" width="118.9" height="119.1"/>
		</defs>
		<clipPath id="SVGID_00000108990535908088285100000015289491006716202404_">
			<use xlink:href="#SVGID_1_"  style="overflow:visible;"/>
		</clipPath>
		<path style="clip-path:url(#SVGID_00000108990535908088285100000015289491006716202404_);fill:#202425;" d="M152.8,159.3H47.2
			c-3.6,0-6.6-3-6.6-6.6V47c0-3.6,3-6.6,6.6-6.6c3.6,0,6.6,3,6.6,6.6v99.1h99.1c3.6,0,6.6,3,6.6,6.6
			C159.4,156.4,156.5,159.3,152.8,159.3L152.8,159.3z M73.6,132.9c-3.6,0-6.6-3-6.6-6.6v-33c0-3.6,3-6.6,6.6-6.6
			c3.6,0,6.6,3,6.6,6.6v33C80.2,129.9,77.2,132.9,73.6,132.9L73.6,132.9z M100,132.9c-3.6,0-6.6-3-6.6-6.6v-13.2
			c0-3.6,3-6.6,6.6-6.6c3.6,0,6.6,3,6.6,6.6v13.2C106.6,129.9,103.6,132.9,100,132.9L100,132.9z M126.4,132.9c-3.6,0-6.6-3-6.6-6.6
			v-33c0-3.6,3-6.6,6.6-6.6c3.6,0,6.6,3,6.6,6.6v33C133,129.9,130.1,132.9,126.4,132.9L126.4,132.9z M152.8,132.9
			c-3.6,0-6.6-3-6.6-6.6V99.9c0-3.6,3-6.6,6.6-6.6c3.6,0,6.6,3,6.6,6.6v26.4C159.4,129.9,156.5,132.9,152.8,132.9L152.8,132.9z
			 M100,86.7c-1.8,0-3.4-0.7-4.7-1.9L68.9,58.3c-1.9-1.6-2.7-4.1-2.1-6.6c0.6-2.4,2.5-4.3,4.9-4.9c2.4-0.6,4.9,0.2,6.6,2.1
			l21.7,21.7l28.3-28.3c2.6-2.6,6.7-2.6,9.3,0l19.8,19.8c2.2,2.6,2.1,6.5-0.3,9c-2.4,2.4-6.3,2.6-9,0.3L133,56.3l-28.3,28.3
			C103.5,85.9,101.8,86.7,100,86.7L100,86.7z M100,86.7"/>
	</g>
</g>
</svg>
