<svg width="80" height="80" viewBox="0 0 80 80" fill="none" xmlns="http://www.w3.org/2000/svg">
<path d="M39.9989 37.7776C43.2786 37.782 46.486 36.8135 49.2151 34.9946C51.9442 33.1756 54.0725 30.5881 55.3306 27.5593C56.5888 24.5305 56.9202 21.1966 56.2831 17.9793C55.6459 14.7621 54.0688 11.8061 51.7513 9.48546C49.4337 7.16479 46.4799 5.58371 43.2635 4.94224C40.0471 4.30078 36.7127 4.62778 33.6822 5.88186C30.6518 7.13593 28.0613 9.26073 26.2388 11.9874C24.4162 14.7141 23.4434 17.9201 23.4434 21.1998C23.4434 25.5927 25.1869 29.806 28.291 32.9142C31.3951 36.0225 35.6061 37.7717 39.9989 37.7776ZM39.9989 9.04429C42.4005 9.03989 44.7495 9.74832 46.7482 11.0799C48.7469 12.4114 50.3055 14.3061 51.2266 16.5241C52.1477 18.7421 52.3899 21.1835 51.9224 23.5392C51.4549 25.895 50.2989 28.0589 48.6007 29.7572C46.9025 31.4554 44.7385 32.6114 42.3828 33.0789C40.0271 33.5463 37.5856 33.3042 35.3676 32.3831C33.1497 31.462 31.2549 29.9034 29.9234 27.9047C28.5918 25.9059 27.8834 23.557 27.8878 21.1554C27.8937 17.9451 29.1716 14.868 31.4416 12.598C33.7116 10.328 36.7887 9.05016 39.9989 9.04429Z" fill="black"/>
<path d="M13.3345 70.8668V57.2668C16.7653 53.6661 20.908 50.8187 25.4989 48.9058C30.0899 46.9929 35.0286 46.0564 40.0012 46.1557C46.807 46.064 53.5057 47.856 59.3567 51.3335L62.3567 47.9779C55.6674 43.7646 47.9065 41.5659 40.0012 41.6446C34.2172 41.4972 28.4719 42.6277 23.175 44.9555C17.878 47.2832 13.1598 50.7509 9.35674 55.1113C9.0603 55.4931 8.89646 55.9612 8.89007 56.4446V70.8668C8.86018 72.0773 9.31106 73.2503 10.144 74.129C10.977 75.0078 12.1242 75.5208 13.3345 75.5557H40.8678L36.6456 71.1113L13.3345 70.8668Z" fill="black"/>
<path d="M66.666 70.8666V71.1111H59.666L55.666 75.5555H66.666C67.8607 75.5207 68.9944 75.02 69.8249 74.1605C70.6554 73.301 71.1168 72.1507 71.1105 70.9555V58.2222L66.666 63.1777V70.8666Z" fill="black"/>
<path d="M77.2443 41.3778C76.8049 40.9866 76.2282 40.7857 75.6409 40.819C75.0535 40.8523 74.5033 41.1172 74.111 41.5556L50.4812 67.9916C49.3044 69.3081 47.2507 69.3285 46.048 68.0356L36.7332 58.0222C36.5435 57.8004 36.312 57.6182 36.0519 57.4858C35.7918 57.3535 35.5081 57.2737 35.2172 57.251C34.9262 57.2283 34.6336 57.2632 34.3561 57.3535C34.0786 57.4439 33.8216 57.5881 33.5999 57.7778C33.3826 57.9754 33.2067 58.2142 33.0823 58.4802C32.9579 58.7463 32.8874 59.0343 32.875 59.3278C32.8626 59.6212 32.9085 59.9142 33.01 60.1898C33.1116 60.4653 33.2667 60.7181 33.4665 60.9333L46.0944 74.5239C47.2961 75.8172 49.3495 75.7983 50.5271 74.4829L77.4221 44.4445C77.793 44.0087 77.9815 43.4467 77.9484 42.8755C77.9153 42.3042 77.6631 41.7677 77.2443 41.3778Z" fill="black"/>
</svg>
