<svg width="67" height="67" viewBox="0 0 67 67" fill="none" xmlns="http://www.w3.org/2000/svg">
<path d="M33.8759 38.2674C33.8136 38.2674 33.7201 38.2674 33.6578 38.2674C33.5643 38.2674 33.4396 38.2674 33.3462 38.2674C26.2722 38.0492 20.9746 32.5335 20.9746 25.7401C20.9746 18.822 26.615 13.1816 33.5331 13.1816C40.4512 13.1816 46.0915 18.822 46.0915 25.7401C46.0604 32.5647 40.7316 38.0492 33.9694 38.2674C33.9071 38.2674 33.9071 38.2674 33.8759 38.2674ZM33.502 17.8248C29.1392 17.8248 25.6178 21.3773 25.6178 25.7089C25.6178 29.9782 28.9523 33.4372 33.1903 33.593C33.2838 33.5619 33.5954 33.5619 33.9071 33.593C38.0828 33.3749 41.3549 29.947 41.386 25.7089C41.386 21.3773 37.8647 17.8248 33.502 17.8248Z" fill="black"/>
<path d="M33.5023 66.9997C25.1196 66.9997 17.1109 63.8835 10.9096 58.2119C10.3487 57.7133 10.0994 56.9654 10.1617 56.2487C10.5668 52.5404 12.8728 49.0814 16.7058 46.526C25.9922 40.3559 41.0435 40.3559 50.2988 46.526C54.1317 49.1125 56.4377 52.5404 56.8428 56.2487C56.9363 56.9966 56.6559 57.7133 56.095 58.2119C49.8936 63.8835 41.8849 66.9997 33.5023 66.9997ZM15.0542 55.6254C20.2271 59.957 26.7401 62.3254 33.5023 62.3254C40.2645 62.3254 46.7774 59.957 51.9504 55.6254C51.3894 53.7245 49.8936 51.886 47.6811 50.3902C40.0152 45.2796 27.0205 45.2796 19.2923 50.3902C17.0797 51.886 15.6151 53.7245 15.0542 55.6254Z" fill="black"/>
<path d="M33.4995 66.999C15.0202 66.999 0 51.9788 0 33.4995C0 15.0202 15.0202 0 33.4995 0C51.9788 0 66.999 15.0202 66.999 33.4995C66.999 51.9788 51.9788 66.999 33.4995 66.999ZM33.4995 4.67435C17.6067 4.67435 4.67435 17.6067 4.67435 33.4995C4.67435 49.3923 17.6067 62.3247 33.4995 62.3247C49.3923 62.3247 62.3247 49.3923 62.3247 33.4995C62.3247 17.6067 49.3923 4.67435 33.4995 4.67435Z" fill="black"/>
</svg>
